<svg width="30" height="30" viewBox="0 0 30 30" fill="none" xmlns="http://www.w3.org/2000/svg">
<path d="M5 16.25C5.6875 16.25 6.25 15.6875 6.25 15C6.25 14.3125 5.6875 13.75 5 13.75C4.3125 13.75 3.75 14.3125 3.75 15C3.75 15.6875 4.3125 16.25 5 16.25ZM5 21.25C5.6875 21.25 6.25 20.6875 6.25 20C6.25 19.3125 5.6875 18.75 5 18.75C4.3125 18.75 3.75 19.3125 3.75 20C3.75 20.6875 4.3125 21.25 5 21.25ZM5 11.25C5.6875 11.25 6.25 10.6875 6.25 10C6.25 9.3125 5.6875 8.75 5 8.75C4.3125 8.75 3.75 9.3125 3.75 10C3.75 10.6875 4.3125 11.25 5 11.25ZM10 16.25H25C25.6875 16.25 26.25 15.6875 26.25 15C26.25 14.3125 25.6875 13.75 25 13.75H10C9.3125 13.75 8.75 14.3125 8.75 15C8.75 15.6875 9.3125 16.25 10 16.25ZM10 21.25H25C25.6875 21.25 26.25 20.6875 26.25 20C26.25 19.3125 25.6875 18.75 25 18.75H10C9.3125 18.75 8.75 19.3125 8.75 20C8.75 20.6875 9.3125 21.25 10 21.25ZM8.75 10C8.75 10.6875 9.3125 11.25 10 11.25H25C25.6875 11.25 26.25 10.6875 26.25 10C26.25 9.3125 25.6875 8.75 25 8.75H10C9.3125 8.75 8.75 9.3125 8.75 10ZM5 16.25C5.6875 16.25 6.25 15.6875 6.25 15C6.25 14.3125 5.6875 13.75 5 13.75C4.3125 13.75 3.75 14.3125 3.75 15C3.75 15.6875 4.3125 16.25 5 16.25ZM5 21.25C5.6875 21.25 6.25 20.6875 6.25 20C6.25 19.3125 5.6875 18.75 5 18.75C4.3125 18.75 3.75 19.3125 3.75 20C3.75 20.6875 4.3125 21.25 5 21.25ZM5 11.25C5.6875 11.25 6.25 10.6875 6.25 10C6.25 9.3125 5.6875 8.75 5 8.75C4.3125 8.75 3.75 9.3125 3.75 10C3.75 10.6875 4.3125 11.25 5 11.25ZM10 16.25H25C25.6875 16.25 26.25 15.6875 26.25 15C26.25 14.3125 25.6875 13.75 25 13.75H10C9.3125 13.75 8.75 14.3125 8.75 15C8.75 15.6875 9.3125 16.25 10 16.25ZM10 21.25H25C25.6875 21.25 26.25 20.6875 26.25 20C26.25 19.3125 25.6875 18.75 25 18.75H10C9.3125 18.75 8.75 19.3125 8.75 20C8.75 20.6875 9.3125 21.25 10 21.25ZM8.75 10C8.75 10.6875 9.3125 11.25 10 11.25H25C25.6875 11.25 26.25 10.6875 26.25 10C26.25 9.3125 25.6875 8.75 25 8.75H10C9.3125 8.75 8.75 9.3125 8.75 10Z" fill="black"/>
</svg>
